<svg width="115" height="110" viewBox="0 0 115 110" fill="none" xmlns="http://www.w3.org/2000/svg">
<g clip-path="url(#clip0_3697_6594)">
<path d="M55.9269 73.6742L24.0779 6.44629L22.0374 7.41838L8.50195 13.8649L10.3724 17.8044L20.439 13.0122L50.3495 76.1471C52.0499 75.0556 53.9374 74.2199 55.9269 73.6742Z" fill="white"/>
<path d="M80.787 86.124L106.702 73.7767L104.117 68.3022L77.7603 80.8542C79.0016 82.4402 80.0218 84.2139 80.787 86.124Z" fill="white"/>
<path d="M61.4534 72.9067C66.5717 72.9067 71.2649 74.7827 74.8868 77.8525L115 58.8199L94.1697 14.6323L43.854 38.4912L60.1101 72.975C60.5522 72.9408 60.9943 72.9067 61.4364 72.9067H61.4534Z" fill="#FEE801"/>
<path d="M64.3563 -0.00277142L33.1357 14.8052L42.6008 34.8784L73.8213 20.0704L64.3563 -0.00277142Z" fill="#FEE801"/>
<path d="M14.6303 9.3033L-0.00585938 16.2798L3.46121 23.5963L18.0974 16.6198L14.6303 9.3033Z" fill="#FEE801"/>
<path d="M30.2774 31.3462L27.604 32.6177L30.664 39.0897L33.3374 37.8182L30.2774 31.3462Z" fill="#FEE801"/>
<path d="M43.7363 59.7463L41.0645 61.021L44.1323 67.4893L46.8042 66.2145L43.7363 59.7463Z" fill="#FEE801"/>
<path d="M61.4536 77.4946C52.5094 77.4946 45.2485 84.7768 45.2485 93.7473C45.2485 102.718 52.5094 110 61.4536 110C70.3979 110 77.6587 102.718 77.6587 93.7473C77.6587 84.7768 70.4149 77.4946 61.4536 77.4946ZM61.4536 105.771C54.839 105.771 49.4656 100.399 49.4656 93.7473C49.4656 87.0962 54.839 81.7241 61.4536 81.7241C68.0683 81.7241 73.4416 87.1132 73.4416 93.7473C73.4416 100.381 68.0683 105.771 61.4536 105.771Z" fill="white"/>
<path d="M69.2244 93.7474C69.2244 98.0621 65.7385 101.558 61.4364 101.558C57.1343 101.558 53.6484 98.0621 53.6484 93.7474C53.6484 89.4327 57.1343 85.9365 61.4364 85.9365C65.7385 85.9365 69.2244 89.4327 69.2244 93.7474Z" fill="white"/>
<path d="M80.1954 58.4585L62.7632 66.8052L63.6862 68.7444L81.1185 60.3977L80.1954 58.4585Z" fill="white"/>
<path d="M59.5149 55.5457L63.3579 53.7039L67.4559 62.3163L63.613 64.1581L59.5149 55.5457ZM57.3724 46.0977L56.6582 54.9659L64.6842 51.1116L57.3724 46.0977Z" fill="white"/>
<path d="M69.6663 50.6854L73.5093 48.8435L77.6073 57.4559L73.7643 59.2978L69.6663 50.6854ZM67.5237 41.2373L66.8096 50.1055L74.8356 46.2683L67.5237 41.2544V41.2373Z" fill="white"/>
<path d="M98.9478 34.4668C95.4449 31.2947 90.2416 30.3567 85.7185 32.5226C81.1953 34.6885 78.6447 39.3272 78.9167 44.0683L98.9478 34.4838V34.4668Z" fill="white"/>
<path d="M98.1827 52.2204C96.4993 53.0219 94.2887 52.7661 93.3025 50.7366C92.4863 49.0312 88.8813 41.4421 88.8813 41.4421L90.6668 40.5894C90.6668 40.5894 94.2717 48.1785 95.0879 49.8839C95.7171 51.2142 97.2815 50.4808 97.3325 50.4467C97.7576 50.2421 98.5568 49.4235 98.0637 48.4002L99.8321 47.5475C100.767 49.5087 99.6961 51.5041 98.1827 52.2374V52.2204Z" fill="white"/>
</g>
<defs>
<clipPath id="clip0_3697_6594">
<rect width="115" height="110" fill="white"/>
</clipPath>
</defs>
</svg>
